Coordinates
version=1
nRows=10
nColumns=63
inDegrees=yes

Units are S.I. units (second, meters, Newtons, ...)
If the header above contains a line with 'inDegrees', this indicates whether rotational values are in degrees (yes) or radians (no).

endheader
time	pelvis_tilt	pelvis_list	pelvis_rotation	pelvis_tx	pelvis_ty	pelvis_tz	hip_flexion_r	hip_adduction_r	hip_rotation_r	knee_angle_r	knee_angle_r_beta	ankle_angle_r	subtalar_angle_r	mtp_angle_r	hip_flexion_l	hip_adduction_l	hip_rotation_l	knee_angle_l	knee_angle_l_beta	ankle_angle_l	subtalar_angle_l	mtp_angle_l	L5_S1_Flex_Ext	L5_S1_Lat_Bending	L5_S1_axial_rotation	L4_L5_Flex_Ext	L4_L5_Lat_Bending	L4_L5_axial_rotation	L3_L4_Flex_Ext	L3_L4_Lat_Bending	L3_L4_axial_rotation	L2_L3_Flex_Ext	L2_L3_Lat_Bending	L2_L3_axial_rotation	L1_L2_Flex_Ext	L1_L2_Lat_Bending	L1_L2_axial_rotation	L1_T12_Flex_Ext	L1_T12_Lat_Bending	L1_T12_axial_rotation	Abs_r3	Abs_r2	Abs_r1	Abs_t1	Abs_t2	neck_flexion	neck_bending	neck_rotation	arm_flex_r	arm_add_r	arm_rot_r	elbow_flex_r	pro_sup_r	wrist_flex_r	wrist_dev_r	arm_flex_l	arm_add_l	arm_rot_l	elbow_flex_l	pro_sup_l	wrist_flex_l	wrist_dev_l
      1.59183673	      1.08348634	     -4.52260281	     89.03500449	      0.20206581	      0.72312987	      0.86124181	     21.97248469	      0.94684041	      6.55908981	     19.13482222	      0.33396565	     33.93137507	     -2.76585674	      0.00000000	     16.30357763	     -0.28165476	    -18.51411318	     11.91330708	      0.20792643	     37.96643870	     13.84574248	      0.00000000	     -0.23108440	     -0.19802281	     -0.82956125	     -0.42914684	     -0.26337034	     -0.88140883	     -0.37964856	     -0.48147266	     -0.88140883	     -0.26410636	     -0.48147266	     -0.72586610	     -0.21458498	     -0.40380811	     -0.67401852	     -0.13204163	     -0.30673733	     -0.62217094	     -1.65061277	     -2.24007362	     -4.61377083	      0.00000000	      0.00000000	     19.47025603	      9.47609264	    -12.94237186	     37.35458495	     -2.01518832	      5.98809290	    149.43854940	     89.38170818	     11.09788672	     18.11456601	      1.74879656	    -12.59066442	    142.54754237	      1.76493264	      2.73994251	     -6.21073126	    -11.89619742
      1.61224490	      1.13324987	     -4.70062783	     88.92077656	      0.20245540	      0.72237083	      0.86151096	     22.28695881	      1.04177398	      6.55623076	     19.26257518	      0.33619536	     34.10069257	     -2.50707161	      0.00000000	     16.56202711	     -0.39189558	    -18.50717660	     12.19135262	      0.21277924	     37.63644367	     13.44103167	      0.00000000	     -0.23151058	     -0.19722227	     -0.72699437	     -0.42993830	     -0.26230562	     -0.77243152	     -0.38034874	     -0.47952622	     -0.77243152	     -0.26459345	     -0.47952622	     -0.63612008	     -0.21498073	     -0.40217565	     -0.59068293	     -0.13228515	     -0.30549729	     -0.54524578	     -1.65365695	     -2.23101773	     -4.04332460	      0.00000000	      0.00000000	     19.53672237	      9.25776933	    -14.23740400	     37.24531552	     -1.99599152	      5.13247430	    149.27486544	     89.35984364	     12.77607531	     15.54400063	      1.96606106	    -12.64230940	    142.16285072	      1.92748402	      2.78131346	     -5.37372204	    -11.35140061
      1.63265306	      0.91146276	     -4.90252325	     88.71797309	      0.20370239	      0.72087418	      0.86211968	     22.86284271	      0.97192148	      6.75811759	     19.82344852	      0.34598445	     34.46129581	     -2.46383225	      0.00000000	     17.05462658	     -0.38736068	    -19.05402744	     12.75835681	      0.22267533	     37.63300325	     13.65375594	      0.00000000	     -0.22562406	     -0.24555936	     -0.61812999	     -0.41900644	     -0.32659395	     -0.65676311	     -0.37067776	     -0.59705303	     -0.65676311	     -0.25786574	     -0.59705303	     -0.54086374	     -0.20951450	     -0.50074465	     -0.50223062	     -0.12892159	     -0.38037145	     -0.46359749	     -1.61161008	     -2.77781661	     -3.43785356	      0.00000000	      0.00000000	     19.15494204	      9.31260996	    -15.86213068	     36.97701214	     -1.65404203	      3.80250708	    149.00246169	     89.34395648	     15.64509972	     12.74830905	      2.32852899	    -12.97888001	    141.88831722	      2.27579819	      2.85530508	     -4.76761155	    -10.56436899
      1.65306122	      0.44155500	     -5.05708098	     88.42659680	      0.20547415	      0.71894399	      0.86306519	     23.58898737	      0.74369524	      7.20075945	     20.69108556	      0.36112757	     35.04888566	     -2.71806178	      0.00000000	     17.65190322	     -0.28843712	    -20.27825886	     13.49407426	      0.23551603	     38.10838584	     14.94900783	      0.00000000	     -0.23193038	     -0.33134374	     -0.52134994	     -0.43071791	     -0.44068717	     -0.55393431	     -0.38103842	     -0.80562916	     -0.55393431	     -0.26507323	     -0.80562916	     -0.45618119	     -0.21537055	     -0.67567615	     -0.42359682	     -0.13252502	     -0.51325145	     -0.39101245	     -1.65665552	     -3.74822662	     -2.89959194	      0.00000000	      0.00000000	     18.68794720	      9.52295587	    -17.49915538	     36.84465614	     -0.59780445	      1.76141199	    148.64167585	     89.30963950	     20.94586367	     10.36805660	      2.82300043	    -13.48349927	    142.34836178	      2.66384178	      3.03982534	     -4.54008932	     -9.68629708
      1.67346939	     -0.18225680	     -5.27410623	     88.07047160	      0.20772936	      0.71676284	      0.86424793	     24.54719939	      0.43128441	      7.69409280	     21.71576964	      0.37901168	     35.83093811	     -2.99648040	      0.00000000	     18.39679980	     -0.06886358	    -21.19394492	     14.18037897	      0.24749430	     38.89117639	     16.18014691	      0.00000000	     -0.23033230	     -0.44127310	     -0.46861650	     -0.42775012	     -0.58689322	     -0.49790503	     -0.37841294	     -1.07291140	     -0.49790503	     -0.26324679	     -1.07291140	     -0.41003944	     -0.21388657	     -0.89984410	     -0.38075091	     -0.13161188	     -0.68353202	     -0.35146238	     -1.64524059	     -4.99176951	     -2.60630440	      0.00000000	      0.00000000	     18.13417087	      9.92188066	    -18.88464077	     37.01032350	      1.35929294	     -0.87741206	    148.73734179	     89.23529692	     28.39365458	     12.12577471	      3.24221417	    -14.02278388	    144.57937393	      2.70574019	      3.26052809	     -4.92637117	     -8.55863135
      1.69387755	     -0.92741416	     -5.43248099	     87.62267673	      0.21012361	      0.71484346	      0.86570715	     25.58883586	     -0.00487301	      7.93967919	     22.77510681	      0.39750060	     36.87158545	     -2.62913594	      0.00000000	     19.07441238	      0.32863589	    -21.59319455	     14.63656663	      0.25545628	     39.78553599	     16.86213902	      0.00000000	     -0.24411732	     -0.56864025	     -0.44333903	     -0.45335028	     -0.75629153	     -0.47104772	     -0.40106035	     -1.38259190	     -0.47104772	     -0.27900169	     -1.38259190	     -0.38792165	     -0.22668734	     -1.15957119	     -0.36021296	     -0.13948864	     -0.88082374	     -0.33250427	     -1.74370561	     -6.43257220	     -2.46571866	      0.00000000	      0.00000000	     17.77889317	     10.57625329	    -20.08947374	     37.13433168	      3.69570254	     -3.12048757	    149.05699422	     89.15082722	     35.06911035	     15.92113168	      3.70255768	    -14.61661282	    147.18755330	      2.62326241	      3.73018874	     -5.71627339	     -7.59408443
      1.71428571	     -1.78412341	     -5.69823601	     87.09528178	      0.21249561	      0.71312137	      0.86726586	     26.87516190	     -0.48594398	      8.29737459	     23.88600498	      0.41688943	     37.96237980	     -2.05927509	      0.00000000	     19.81393939	      0.86405888	    -21.86921929	     14.88968696	      0.25987406	     40.66415081	     17.27404783	      0.00000000	     -0.23688266	     -0.71039806	     -0.42774084	     -0.43991479	     -0.94482942	     -0.45447464	     -0.38917453	     -1.72726185	     -0.45447464	     -0.27073320	     -1.72726185	     -0.37427323	     -0.21996924	     -1.44864373	     -0.34753943	     -0.13535475	     -1.10040660	     -0.32080563	     -1.69202918	     -8.03616497	     -2.37896622	      0.00000000	      0.00000000	     17.62487079	     11.46778310	    -21.11577876	     36.36925167	      5.59892145	     -3.84610308	    149.32308465	     89.12892084	     37.47689481	     18.76394721	      4.12347069	    -15.26534258	    148.06864327	      2.59679054	      4.32041186	     -6.67900149	     -6.79111031
      1.73469388	     -2.43623216	     -5.56484425	     86.66386281	      0.21477931	      0.71258842	      0.86879788	     27.62312517	     -0.86211549	      8.33059943	     24.71337623	      0.43132978	     39.10644947	     -0.90017832	      0.00000000	     20.11070048	      1.22123135	    -22.12212574	     15.15948561	      0.26458294	     41.45431305	     17.61195660	      0.00000000	     -0.28341037	     -0.82887965	     -0.45977168	     -0.52632141	     -1.10240994	     -0.48850741	     -0.46561490	     -2.01533799	     -0.48850741	     -0.32390972	     -2.01533799	     -0.40230022	     -0.26317487	     -1.69025139	     -0.37356449	     -0.16194069	     -1.28393458	     -0.34482876	     -2.02437196	     -9.37645241	     -2.55711214	      0.00000000	      0.00000000	     17.31228826	     12.56016618	    -21.36023547	     35.18458735	      7.52574947	     -3.95958052	    149.51331600	     89.04339508	     39.50864627	     23.27829969	      4.56614847	    -15.86497402	    149.18760007	      2.42903336	      4.41718896	     -7.22412068	     -6.10208554
      1.75510204	     -3.06086754	     -5.57255640	     86.16203900	      0.21704775	      0.71258357	      0.86974785	     28.34872166	     -1.12216812	      8.75171684	     25.27604371	      0.44115018	     39.97565659	     -0.14886976	      0.00000000	     20.31667003	      1.60603259	    -22.34634774	     15.05331890	      0.26272998	     41.87683429	     17.74257743	      0.00000000	     -0.29403096	     -0.95118554	     -0.41022227	     -0.54604489	     -1.26507677	     -0.43586116	     -0.48306346	     -2.31271253	     -0.43586116	     -0.33604798	     -2.31271253	     -0.35894449	     -0.27303715	     -1.93965756	     -0.33330560	     -0.16800929	     -1.47338640	     -0.30766670	     -2.10023372	    -10.76000109	     -2.28153321	      0.00000000	      0.00000000	     16.82897673	     13.25929231	    -22.63115708	     32.61074413	      8.26255820	     -2.49258346	    149.55277959	     89.12897077	     35.63506749	     25.64234625	      5.00207536	    -16.45499942	    149.49711907	      2.27671527	      4.61202833	     -7.89814621	     -5.44152234
      1.77551020	     -3.26104471	     -5.68747168	     85.89004038	      0.21866047	      0.71313038	      0.86996587	     28.73085091	     -1.16476995	      8.62871347	     25.23031924	      0.44035214	     40.57436801	      0.85345582	      0.00000000	     20.47185295	      1.66451104	    -22.33139171	     14.83910172	      0.25899118	     42.11147292	     17.83891036	      0.00000000	     -0.28468255	     -1.02477213	     -0.29648694	     -0.52868396	     -1.36294694	     -0.31501737	     -0.46770496	     -2.49163097	     -0.31501737	     -0.32536369	     -2.49163097	     -0.25942607	     -0.26435622	     -2.08971534	     -0.24089564	     -0.16266761	     -1.58737204	     -0.22236520	     -2.03345898	    -11.59242734	     -1.64897141	      0.00000000	      0.00000000	     16.19216179	     13.75024011	    -24.56031098	     29.14657716	      7.70227468	      0.16934529	    149.42931842	     89.32489510	     26.24083901	     25.49761969	      5.53523908	    -16.81495943	    149.38911153	      2.15856609	      4.49044617	     -8.39682108	     -4.94226707
